<svg width="24" height="24" viewBox="0 0 24 24" fill="none" xmlns="http://www.w3.org/2000/svg">
<g clip-path="url(#clip0_522_2)">
<path d="M2.87996 22.7998C2.87996 23.3916 3.2486 23.7598 3.83996 23.7598C4.43276 23.7598 4.79996 23.3916 4.79996 22.7998V13.9198H5.75996V22.7998C5.75996 23.3907 6.12812 23.7598 6.71996 23.7598C7.3118 23.7598 7.67996 23.3916 7.67996 22.7998V7.67979H8.15996V13.1105C8.15996 14.2601 9.60284 14.2601 9.59996 13.1105V7.27707C9.59996 6.00699 8.68508 5.27979 7.19996 5.27979H3.35996C2.00636 5.27979 0.959961 5.86491 0.959961 7.24155V13.4398C0.959961 14.3998 2.39996 14.3998 2.39996 13.4398V7.67979H2.87996V22.7998Z" fill="#D27C2C"/>
<path d="M5.21999 4.43998C6.31351 4.43998 7.19999 3.5535 7.19999 2.45998C7.19999 1.36646 6.31351 0.47998 5.21999 0.47998C4.12647 0.47998 3.23999 1.36646 3.23999 2.45998C3.23999 3.5535 4.12647 4.43998 5.21999 4.43998Z" fill="#D27C2C"/>
<path d="M17.22 4.43998C18.3135 4.43998 19.2 3.5535 19.2 2.45998C19.2 1.36646 18.3135 0.47998 17.22 0.47998C16.1265 0.47998 15.24 1.36646 15.24 2.45998C15.24 3.5535 16.1265 4.43998 17.22 4.43998Z" fill="#D27C2C"/>
<path d="M22.0383 15.5998L19.202 7.80603L19.1857 7.72587C19.1857 7.61211 19.2812 7.51995 19.4002 7.51995C19.5015 7.51995 19.5865 7.58763 19.609 7.67787L21.5372 12.7198C21.6653 13.0083 22.1924 13.1998 22.5389 13.1998C23.0021 13.1998 23.0501 12.2902 23.0401 12.2398L21.1119 7.38843C20.9444 6.27434 19.8193 5.27979 18.5353 5.27979H16.0225C14.7385 5.27979 13.5303 6.27434 13.3623 7.38843L11.5205 12.2998C11.4788 12.3953 11.5205 13.23 12.0217 13.23C12.4109 13.23 12.9289 13.0793 13.0229 12.7351L14.8829 7.66443C14.8987 7.6234 14.9264 7.58807 14.9626 7.56306C14.9987 7.53806 15.0416 7.52454 15.0855 7.52427C15.2036 7.52427 15.2991 7.61451 15.2991 7.72779L15.2861 7.80026L12.5223 15.6007C12.5165 15.6238 12.5223 16.1767 12.5223 16.2003C12.5223 16.3663 12.9236 16.8003 13.0973 16.8003H14.8801V22.8459C14.8801 23.3451 15.3197 23.7603 15.8401 23.7603C16.3604 23.7603 16.8001 23.3446 16.8001 22.8459V16.5555C16.8001 16.4196 17.7601 16.4239 17.7601 16.5598V22.7998C17.7601 23.299 18.2002 23.7598 18.7201 23.7598C19.2413 23.7598 19.6801 23.2985 19.6801 22.7998V16.7998H21.5372C21.7109 16.7998 22.0383 16.3659 22.0383 16.1998C22.0383 16.1614 22.0522 15.6329 22.0383 15.5998Z" fill="#D27C2C"/>
</g>
<defs>
<clipPath id="clip0_522_2">
<rect width="24" height="24" fill="white"/>
</clipPath>
</defs>
</svg>
